<svg version="1.0" xmlns="http://www.w3.org/2000/svg" width="32" height="20"><path fill="#454545" d="M29 0H3C1.35 0 0 1.35 0 3v14c0 1.65 1.35 3 3 3h26c1.65 0 3-1.35 3-3V3c0-1.65-1.35-3-3-3zM14.403 15.854c-.545.108-1.104.164-1.678.164-.694 0-1.354-.107-1.976-.323-.623-.214-1.172-.562-1.646-1.041s-.852-1.103-1.133-1.868c-.28-.766-.419-1.695-.419-2.786 0-1.134.157-2.085.471-2.851.315-.768.723-1.384 1.224-1.854.502-.468 1.062-.804 1.679-1.008.616-.204 1.233-.307 1.852-.307.66 0 1.22.045 1.678.134.457.087.835.192 1.133.313l-.448 1.92c-.254-.121-.555-.209-.902-.265C13.891 6.027 13.47 6 12.973 6c-.915 0-1.649.325-2.206.977-.558.651-.836 1.663-.836 3.031 0 .598.067 1.142.199 1.632.132.493.334.913.603 1.26.271.349.607.619 1.01.812.402.193.867.29 1.396.29.496 0 .915-.049 1.257-.148.342-.099.639-.227.893-.38l.463 1.841c-.354.249-.803.43-1.349.539zm8.698 0c-.545.108-1.105.164-1.678.164-.694 0-1.354-.107-1.976-.323-.623-.214-1.172-.562-1.646-1.041s-.852-1.103-1.133-1.868c-.281-.767-.421-1.695-.421-2.786 0-1.134.157-2.085.471-2.851.314-.768.723-1.384 1.223-1.854.502-.468 1.062-.804 1.68-1.008.616-.204 1.233-.307 1.851-.307.661 0 1.221.045 1.678.134.458.087.836.192 1.133.313l-.446 1.918c-.253-.121-.554-.209-.901-.265-.348-.053-.77-.08-1.266-.08-.915 0-1.649.325-2.206.977-.558.651-.836 1.663-.836 3.031 0 .598.067 1.142.199 1.632.132.493.334.913.603 1.26.271.349.606.619 1.009.812.402.193.868.29 1.396.29.497 0 .915-.049 1.257-.148.342-.099.64-.227.894-.38l.463 1.841c-.353.249-.803.43-1.348.539z"/></svg>