<svg style="display: none;" xmlns="http://www.w3.org/2000/svg">
  <symbol id="social-twitter">
    <path fill-rule="evenodd" clip-rule="evenodd" d="M11.28.15c1.74-.48 3.08.27 3.69 1.15.7-.22 1.37-.47 2.07-.69 0 .84-.54 1.48-.88 1.73.7.17 1.34-.48 1.34-.48a2.9 2.9 0 01-1.61 1.98c-.24 6.59-3.27 10.95-10.38 10.82h-.46c-.43 0-4.3-.45-5.05-1.84 2.34.19 4.01-.42 4.83-1.15-.98-.3-2.76-.47-3.06-2.88.36.1.58.22 1.22.11C1.76 8.07.4 7.37.46 5.22c.3.32 1.1.52 1.38.46C1.12 5.44-.19 2.4.92.84 2.8 2.65 4.77 4.36 8.3 4.53c.22-2.24 1.17-3.74 3-4.38z"/>
  </symbol>
  <symbol id="social-facebook">
    <path d="M6.28 3.36h2.4V0H5.8C2.65.18 1.54 2.39 1.94 6.11H0v3.52h1.96v9.31H5.8v-9.3h2.85V6.1H5.8c-.03-1.04-.04-2.4.48-2.75z"/>
  </symbol>
  <symbol id="social-youtube">
    <path d="M17.14 0H2.84A2.84 2.84 0 000 2.83v8.35a2.84 2.84 0 002.83 2.83h14.32a2.84 2.84 0 002.83-2.83V2.84A2.84 2.84 0 0017.14 0zM7.04 10.4V3.61l6.76 3.39-6.76 3.38z"/>
  </symbol>
  <symbol viewBox="0 0 27 34" id="logo-htmlacademy">
    <path d="M13.62.017L13.472 0 0 1.412v24.661l13.473 8.017 13.43-7.99.042-.025V1.412L13.62.017zm11.399 12.11L13.495 5.334l-.001-.104-.087.05-.088-.056v.109L1.925 12.118V3.147l11.548-1.212L25.02 3.147v8.98zm-11.614-5.34L24.923 13.5l-4.479 2.64-7.093-4.221-.014 1.415 5.904 3.513-.86.507-5.03-2.992-.014 1.415 3.827 2.275-.782.523-3.031-1.787-.014 1.413 1.853 1.091-1.8 1.081-11.356-6.751 11.371-6.835zm-11.48 8.34l11.411 6.791.016 1.044-7.942-4.728-.015 1.416 7.979 4.795.018 1.076-7.973-4.74-.013 1.414 8.021 4.822.046.025 8.143-4.872-.011-5.177 3.415-2.036v10.021L13.472 31.85 1.925 24.979v-9.852z"/>
  </symbol>
  <symbol id="button-replay">
    <path d="M8 4V0L3 5l5 5V6a6 6 0 11-6 6H0a8 8 0 108-8z"/>
  </symbol>
  <symbol id="button-subtitles">
    <path d="M29 0H3a3 3 0 00-3 3v14a3 3 0 003 3h26a3 3 0 003-3V3a3 3 0 00-3-3zM14.4 15.85c-.54.11-1.1.17-1.67.17-.7 0-1.36-.1-1.98-.32-.62-.22-1.17-.57-1.65-1.05s-.85-1.1-1.13-1.86A8.15 8.15 0 017.55 10c0-1.13.16-2.08.47-2.85a5.2 5.2 0 011.23-1.86c.5-.46 1.06-.8 1.68-1 .61-.2 1.23-.31 1.85-.31.66 0 1.22.04 1.68.13.45.1.83.2 1.13.32l-.45 1.92c-.25-.12-.56-.21-.9-.27A8.24 8.24 0 0012.97 6c-.91 0-1.65.33-2.2.98-.56.65-.84 1.66-.84 3.03 0 .6.07 1.14.2 1.63.13.5.33.91.6 1.26.27.35.61.62 1.01.81.4.2.87.3 1.4.3.5 0 .91-.06 1.26-.16.34-.1.63-.22.89-.38l.46 1.84c-.35.25-.8.43-1.35.54zm8.7 0c-.54.11-1.1.17-1.68.17-.7 0-1.35-.1-1.97-.32-.63-.22-1.18-.57-1.65-1.05s-.85-1.1-1.13-1.86a8.13 8.13 0 01-.42-2.79c0-1.13.15-2.08.47-2.85a5.2 5.2 0 011.22-1.86c.5-.46 1.06-.8 1.68-1 .62-.2 1.23-.31 1.85-.31.66 0 1.22.04 1.68.13.46.1.84.2 1.13.32l-.44 1.91c-.26-.12-.56-.2-.9-.26A8.57 8.57 0 0021.67 6c-.92 0-1.65.33-2.2.98-.56.65-.84 1.66-.84 3.03 0 .6.06 1.14.2 1.63.13.5.33.91.6 1.26.27.35.6.62 1 .81.41.2.88.3 1.4.3.5 0 .92-.06 1.26-.16.34-.1.64-.22.9-.38l.46 1.84c-.35.25-.8.43-1.35.54z"/>
  </symbol>
  <symbol id="button-fullscreen">
    <path d="M0 0v6h3V3h3V0H3zm3 14H0v6h6v-3H3zM17 0h-3v3h3v3h3V0zm0 17h-3v3h6v-6h-3z"/>
  </symbol>
  <symbol id="like-icon">
    <path d="M12.38 3.65l-.63 2.92L11.22 9h8.68v2.06L17 18H8V8.03L8.01 8l4.37-4.36M2 10v8-8M13.2 0L6.6 6.6c-.4.3-.6.8-.6 1.4v10c0 1.1.9 2 2 2h9c.8 0 1.5-.5 1.8-1.2l3-7.1c.1-.2.1-.5.1-.7V9h.1a2 2 0 00-2-2h-6.3l1-4.6v-.3c0-.4-.2-.8-.4-1.1l-1.1-1zM4 8H0v12h4V8zm18 1v.04V9z"/>
  </symbol>
  <symbol id="toggle" viewBox="0 0 22.29 22.2">
    <path d="M22.2 2.8L19.4 0l-8.3 8.3L2.8 0 0 2.8l8.3 8.3L0 19.4l2.8 2.8 8.3-8.3 8.3 8.3 2.8-2.8-8.3-8.3z"/>
  </symbol>
  <symbol id="menu-logo" viewBox="0 0 22.928 21.982">
    <path d="M0 0h22.93v3.96H0zM0 9.01h22.93v3.96H0zM0 18.02h22.93v3.96H0z"/>
  </symbol>
  <symbol id="mail-icon">
    <path d="M8 10c-.27 0-.5-.1-1-.34L0 6v7a1 1 0 001 1h14a1 1 0 001-1V6L9 9.66c-.5.25-.73.34-1 .34zm7-8H1a1 1 0 00-1 1v.76l8 4.2 8-4.2V3a1 1 0 00-1-1z"/>
  </symbol>
  <symbol id="phone-icon">
    <path d="M3.6 7.8c1.4 2.8 3.8 5.1 6.6 6.6l2.2-2.2c.3-.3.7-.4 1-.2 1.1.4 2.3.6 3.6.6.6 0 1 .4 1 1V17c0 .6-.4 1-1 1C7.6 18 0 10.4 0 1c0-.6.4-1 1-1h3.5c.6 0 1 .4 1 1 0 1.2.2 2.4.6 3.6.1.3 0 .7-.2 1L3.6 7.8z"/>
  </symbol>
  <symbol id="map-marker">
    <circle fill="#FFF" cx="13.5" cy="13.5" r="13.5"/><circle fill="#81B3D3" cx="13.5" cy="13.5" r="8.36"/>
  </symbol>
  <symbol id="reason-triangle" viewBox="0 12.452 320 37">
    <path fill="#fff" d="M320 12.452H0v21.723l160 15.277 160-15.277z"/>
  </symbol>
  <symbol id="mountain__triangle" viewBox="440.469 30.889 320 26">
    <path fill="#FFF" d="M760.469 57V30.889L599.955 57zM440.469 57h159.486L440.469 31.056z"/>
  </symbol>
</svg>
